0 
0 Name: New Model.ldr
0 Author: 
1 31002 0 0 100 1 0 0 0 1 0 0 0 1 6850.dat
1 4 50 -24 110 1 0 0 0 1 0 0 0 1 3005.dat
1 4 50 -24 110 1 0 0 0 1 0 0 0 1 3005.dat
1 7 10 -24 370 1 0 0 0 1 0 0 0 1 3005.dat
1 320 -90 -24 210 1 0 0 0 1 0 0 0 1 3005.dat
1 4 -60 -24 10 1 0 0 0 1 0 0 0 1 3004.dat
1 4 140 -24 170 1 0 0 0 1 0 0 0 1 3004.dat
1 7 20 -24 350 1 0 0 0 1 0 0 0 1 3004.dat
1 4 -80 -48 10 1 0 0 0 1 0 0 0 1 3004.dat
1 320 100 -48 190 1 0 0 0 1 0 0 0 1 3004.dat
1 4 20 -24 10 1 0 0 0 1 0 0 0 1 3004.dat
1 4 50 -24 20 0 0 1 0 1 0 -1 0 0 3004.dat
1 320 -130 -24 40 0 0 1 0 1 0 -1 0 0 3004.dat
1 7 40 -24 310 1 0 0 0 1 0 0 0 1 3010.dat
1 4 100 -48 170 1 0 0 0 1 0 0 0 1 3010.dat
1 320 -130 -24 160 0 0 1 0 1 0 -1 0 0 3010.dat
1 7 30 -24 330 1 0 0 0 1 0 0 0 1 3622.dat
1 4 -70 -56 -10 1 0 0 0 1 0 0 0 1 3622.dat
1 4 70 -24 -30 1 0 0 0 1 0 0 0 1 3622.dat
1 7 120 -24 400 1 0 0 0 1 0 0 0 1 3003.dat
1 4 80 -48 120 1 0 0 0 1 0 0 0 1 3003.dat
1 4 100 -48 0 1 0 0 0 1 0 0 0 1 3003.dat
1 4 -120 -24 220 1 0 0 0 1 0 0 0 1 3003.dat
1 4 -140 -24 0 1 0 0 0 1 0 0 0 1 3003.dat
1 4 80 -24 100 1 0 0 0 1 0 0 0 1 3003.dat
1 320 60 -24 180 1 0 0 0 1 0 0 0 1 3003.dat
1 4 -50 -24 -20 1 0 0 0 1 0 0 0 1 3002.dat
1 7 130 -24 360 1 0 0 0 1 0 0 0 1 3002.dat
1 320 100 -72 150 0 0 1 0 1 0 -1 0 0 3002.dat
1 320 90 -24 0 1 0 0 0 1 0 0 0 1 3002.dat
1 4 -90 -24 180 1 0 0 0 1 0 0 0 1 3002.dat
1 4 110 -24 200 1 0 0 0 1 0 0 0 1 3002.dat
1 4 100 -24 150 0 0 -1 0 1 0 1 0 0 3002.dat
1 7 140 -24 320 1 0 0 0 1 0 0 0 1 3001.dat
1 4 40 -24 140 1 0 0 0 1 0 0 0 1 3001.dat
1 7 10 -8 590 1 0 0 0 1 0 0 0 1 3070bp1j.dat
1 320 100 -32 210 1 0 0 0 1 0 0 0 1 3069b.dat
1 4 -60 -64 -10 1 0 0 0 1 0 0 0 1 3069b.dat
1 320 80 -16 30 1 0 0 0 1 0 0 0 1 3069b.dat
1 4 40 -32 10 1 0 0 0 1 0 0 0 1 3069b.dat
1 4 70 -32 0 0 0 1 0 1 0 -1 0 0 3069b.dat
1 7 20 -8 570 1 0 0 0 1 0 0 0 1 3069b.dat
1 4 -150 -32 0 0 0 1 0 1 0 -1 0 0 3069b.dat
1 4 -110 -32 20 0 0 1 0 1 0 -1 0 0 3069b.dat
1 4 80 -32 150 1 0 0 0 1 0 0 0 1 2431.dat
1 320 -130 -32 20 0 0 1 0 1 0 -1 0 0 2431.dat
1 7 40 -8 550 1 0 0 0 1 0 0 0 1 2431.dat
1 4 100 -80 160 1 0 0 0 1 0 0 0 1 3068b.dat
1 4 20 -32 140 1 0 0 0 1 0 0 0 1 3068b.dat
1 7 120 -8 680 1 0 0 0 1 0 0 0 1 3068b.dat
1 4 100 -56 0 1 0 0 0 1 0 0 0 1 3068b.dat
1 7 140 -8 640 1 0 0 0 1 0 0 0 1 87079.dat
1 4 -70 -8 30 1 0 0 0 1 0 0 0 1 3024.dat
1 7 10 -8 490 1 0 0 0 1 0 0 0 1 3024.dat
1 320 -150 -16 30 1 0 0 0 1 0 0 0 1 3024.dat
1 320 -110 -40 -30 1 0 0 0 1 0 0 0 1 3024.dat
1 4 30 -8 170 1 0 0 0 1 0 0 0 1 3024.dat
1 4 30 -8 30 1 0 0 0 1 0 0 0 1 3024.dat
1 7 20 -8 470 1 0 0 0 1 0 0 0 1 3023b.dat
1 4 100 -56 190 1 0 0 0 1 0 0 0 1 3023b.dat
1 320 -80 -8 90 1 0 0 0 1 0 0 0 1 3023b.dat
1 4 -150 -8 50 0 0 1 0 1 0 -1 0 0 3623.dat
1 4 90 -8 30 1 0 0 0 1 0 0 0 1 3623.dat
1 4 70 -8 50 1 0 0 0 1 0 0 0 1 3623.dat
1 7 30 -8 450 -1 0 0 0 1 0 0 0 -1 3623.dat
1 7 40 -8 430 1 0 0 0 1 0 0 0 1 3710.dat
1 320 -150 -8 180 0 0 1 0 1 0 -1 0 0 3710.dat
1 7 120 -8 560 1 0 0 0 1 0 0 0 1 3022.dat
1 7 130 -8 520 1 0 0 0 1 0 0 0 1 3021.dat
1 7 140 -8 480 1 0 0 0 1 0 0 0 1 3020.dat
1 4 -80 -32 -20 1 0 0 0 1 0 0 0 1 3020.dat
1 7 140 -24 320 1 0 0 0 1 0 0 0 1 3001.dat
1 320 -80 -24 60 1 0 0 0 1 0 0 0 1 3001.dat
1 320 -100 -24 0 0 0 1 0 1 0 -1 0 0 3001.dat
1 4 40 -24 140 1 0 0 0 1 0 0 0 1 3001.dat
1 4 -60 -72 60 1 0 0 0 1 0 0 0 1 3942c.dat
1 7 -30 -48 320 1 0 0 0 1 0 0 0 1 3942c.dat
1 4 -70 -24 310 1 0 0 0 1 0 0 0 1 4589.dat
1 4 -90 -80 -10 1 0 0 0 1 0 0 0 1 4589.dat
1 4 70 -24 210 1 0 0 0 1 0 0 0 1 4589.dat
1 4 -150 -32 150 1 0 0 0 1 0 0 0 1 4589.dat
1 320 70 -48 -30 1 0 0 0 1 0 0 0 1 4589.dat
1 4 -130 -24 70 1 0 0 0 1 0 0 0 1 4589.dat
1 324 -130 -24 180 1 0 0 0 1 0 0 0 1 93273.dat
1 7 -30 0 400 1 0 0 0 1 0 0 0 1 93273.dat
1 4 -110 -48 120 0 0 1 0 1 0 -1 0 0 3455.dat
0 !LEOCAD LIGHT POSITION 0.676373 100.696 303.316 
0 !LEOCAD LIGHT ROTATION 1 0 0 0 1 0 0 0 1 
0 !LEOCAD LIGHT COLOR 1 1 1 
0 !LEOCAD LIGHT BLENDER_RADIUS 0 
0 !LEOCAD LIGHT BLENDER_ANGLE 0.00918043 
0 !LEOCAD LIGHT AREA_SIZE_X 250 
0 !LEOCAD LIGHT AREA_SIZE_Y 250 
0 !LEOCAD LIGHT BLENDER_POWER 10 
0 !LEOCAD LIGHT POVRAY_POWER 1 
0 !LEOCAD LIGHT POVRAY_FADE_DISTANCE 0 
0 !LEOCAD LIGHT POVRAY_FADE_POWER 0 
0 !LEOCAD LIGHT AREA_SHAPE RECTANGLE
0 !LEOCAD LIGHT POVRAY_AREA_GRID_X 2 
0 !LEOCAD LIGHT POVRAY_AREA_GRID_Y 2 
0 !LEOCAD LIGHT TYPE AREA NAME Area Light 1
